<?xml version="1.0" encoding="utf-8"?>
<!-- Generator: Adobe Illustrator 16.0.0, SVG Export Plug-In . SVG Version: 6.00 Build 0)  -->
<!DOCTYPE svg PUBLIC "-//W3C//DTD SVG 1.1//EN" "http://www.w3.org/Graphics/SVG/1.1/DTD/svg11.dtd">
<svg version="1.1" xmlns="http://www.w3.org/2000/svg" xmlns:xlink="http://www.w3.org/1999/xlink" x="0px" y="0px" width="1400px"
	 height="980px" viewBox="0 0 1400 980" enable-background="new 0 0 1400 980" xml:space="preserve">
<g id="background">
	<rect fill="#C0E0F2" width="1400" height="980"/>
	<g opacity="0.8">
		
			<image overflow="visible" width="2665" height="537" xlink:href="EC45594CCB6B4E2B.png"  transform="matrix(0.24 0 0 0.24 380.2202 803.3877)">
		</image>
	</g>
	<g opacity="0.8">
		
			<image overflow="visible" width="2665" height="537" xlink:href="EC45594CCB6B4E29.png"  transform="matrix(0.24 0 0 0.24 121.0835 775.0625)">
		</image>
	</g>
</g>
<g id="color_swatches">
	<g>
		<g>
			
				<image overflow="visible" opacity="0.1" width="3122" height="2937" xlink:href="EC45594CCB6B4E2F.png"  transform="matrix(0.24 0 0 0.24 326.4014 138.6123)">
			</image>
			<g>
				<path fill="#F1F2F2" d="M979.012,444.503c-90.697-5.316-3.516-110.714-3.516-110.714c35.168-41.021,13.982-76.302-3.723-95.049
					c-5.336-4.959-10.83-9.754-16.479-14.379v-0.002c-85.703-70.166-206.338-101.254-328.521-73.854
					C424.302,195.909,294.252,384.712,336.297,572.21c42.047,187.499,240.267,302.688,442.736,257.285
					c152.752-34.254,264.277-150.129,291.785-285.482C1081.504,435.897,979.012,444.503,979.012,444.503z M826.762,345.438
					c-46.953-8.454-80.006-36.135-73.824-61.828c6.18-25.691,49.252-39.663,96.203-31.209c46.953,8.455,80.006,36.135,73.824,61.826
					C916.787,339.92,873.713,353.893,826.762,345.438z"/>
			</g>
		</g>
		<g>
			
				<image overflow="visible" opacity="0.1" width="2723" height="2738" xlink:href="EC45594CCB6B4E28.png"  transform="matrix(0.24 0 0 0.24 361.3232 166.1045)">
			</image>
			<g>
				<g>
					
						<circle fill="#EA212E" stroke="#E6E7E8" stroke-width="6" stroke-linejoin="round" stroke-miterlimit="10" cx="637.454" cy="245.66" r="74.54"/>
					
						<circle fill="#F17630" stroke="#E6E7E8" stroke-width="6" stroke-linejoin="round" stroke-miterlimit="10" cx="492.298" cy="338.631" r="74.541"/>
					
						<circle fill="#FFC830" stroke="#E6E7E8" stroke-width="6" stroke-linejoin="round" stroke-miterlimit="10" cx="440.864" cy="503.155" r="74.54"/>
					
						<circle fill="#94C662" stroke="#E6E7E8" stroke-width="6" stroke-linejoin="round" stroke-miterlimit="10" cx="507.217" cy="662.248" r="74.54"/>
					
						<circle fill="#1AAA98" stroke="#E6E7E8" stroke-width="6" stroke-linejoin="round" stroke-miterlimit="10" cx="660.31" cy="741.471" r="74.541"/>
					<path fill="#189AB8" stroke="#E6E7E8" stroke-width="6" stroke-linejoin="round" stroke-miterlimit="10" d="M765.74,743.956
						c22.203,34.666,68.305,44.768,102.971,22.565c34.67-22.205,44.771-68.307,22.566-102.974
						c-22.203-34.665-68.305-44.767-102.971-22.563S743.537,709.291,765.74,743.956z"/>
					
						<circle fill="#7959C6" stroke="#E6E7E8" stroke-width="6" stroke-linejoin="round" stroke-miterlimit="10" cx="933.112" cy="566.743" r="74.54"/>
				</g>
			</g>
		</g>
		<path fill="#D31A2C" d="M621.897,174.84c-20.274,4.547-36.625,17.213-46.403,33.804c9.949-14.63,25.264-25.663,43.892-29.84
			c38.903-8.724,77.513,15.74,86.238,54.644c4.174,18.624,0.742,37.18-8.239,52.423c10.825-15.926,15.293-36.115,10.747-56.386
			C699.411,190.581,660.8,166.116,621.897,174.84z"/>
		<path fill="#E26223" d="M476.194,268.452c-20.274,4.547-36.624,17.214-46.401,33.804c9.948-14.631,25.263-25.663,43.891-29.84
			c38.903-8.725,77.513,15.739,86.236,54.643c4.177,18.625,0.744,37.179-8.236,52.423c10.825-15.925,15.294-36.114,10.749-56.385
			C553.708,284.193,515.097,259.728,476.194,268.452z"/>
		<path fill="#E8B128" d="M425.12,432.555c-20.274,4.546-36.624,17.213-46.402,33.804c9.949-14.631,25.264-25.663,43.891-29.84
			c38.904-8.725,77.513,15.738,86.237,54.643c4.178,18.624,0.744,37.179-8.236,52.423c10.824-15.926,15.294-36.115,10.749-56.386
			C502.633,448.296,464.023,423.831,425.12,432.555z"/>
		<path fill="#80AF4A" d="M491.67,591.622c-20.274,4.545-36.624,17.213-46.401,33.803c9.948-14.63,25.262-25.66,43.89-29.839
			c38.904-8.726,77.514,15.737,86.238,54.644c4.177,18.623,0.744,37.178-8.238,52.421c10.825-15.926,15.295-36.115,10.749-56.385
			C569.184,607.362,530.575,582.896,491.67,591.622z"/>
		<path fill="#179986" d="M644.691,671.042c-20.275,4.545-36.625,17.213-46.403,33.803c9.948-14.631,25.263-25.661,43.891-29.839
			c38.903-8.726,77.515,15.737,86.237,54.642c4.176,18.626,0.744,37.179-8.238,52.423c10.826-15.926,15.295-36.116,10.75-56.386
			C722.203,686.782,683.594,662.315,644.691,671.042z"/>
		<path fill="#108699" d="M812.664,633.372c-20.275,4.547-36.625,17.212-46.404,33.804c9.949-14.631,25.264-25.663,43.895-29.841
			c38.902-8.724,77.512,15.74,86.234,54.644c4.178,18.624,0.744,37.18-8.236,52.421c10.826-15.924,15.295-36.112,10.748-56.384
			C890.176,649.11,851.566,624.647,812.664,633.372z"/>
		<path fill="#634BAA" d="M917.334,496.667c-20.273,4.545-36.625,17.213-46.404,33.805c9.949-14.632,25.266-25.664,43.893-29.842
			c38.904-8.724,77.514,15.74,86.238,54.644c4.178,18.622,0.742,37.179-8.238,52.422c10.824-15.927,15.293-36.113,10.75-56.384
			C994.846,512.407,956.238,487.943,917.334,496.667z"/>
	</g>
	<g>
		
			<ellipse transform="matrix(0.8155 -0.5788 0.5788 0.8155 -165.5331 243.4779)" fill="#414042" cx="299.12" cy="381.372" rx="27.319" ry="274.702"/>
		<path fill="#D1D3D4" d="M340.124,488.902c63.169,80.801,113.819,132.983,124.373,125.494
			c10.554-7.49-21.986-72.525-77.408-158.825L340.124,488.902z"/>
		<path fill="#E6E7E8" d="M391.589,453.973c1.802,2.54,1.205,6.057-1.334,7.859l-45.265,32.125c-2.54,1.802-6.058,1.204-7.86-1.334
			l0,0c-1.802-2.539-1.204-6.058,1.335-7.861l45.265-32.124C386.269,450.836,389.787,451.433,391.589,453.973L391.589,453.973z"/>
		<path fill="#3C2415" d="M500.36,596.844l-0.053,0.037c-12.752-17.033-36.826-20.891-54.277-8.505
			c-17.452,12.385-21.756,36.383-9.888,54.043l-0.052,0.037c15.579,22.677,38.354,33.719,55.542,39.057l0,0
			c10.651,3.272,19.671,21.253,19.671,21.253c1.706-4.292,3.237-10.807,4.43-16.847C517.08,680.727,527.978,634.526,500.36,596.844z
			"/>
	</g>
</g>
</svg>
